<?xml version="1.0" standalone="no"?>
<!DOCTYPE svg PUBLIC "-//W3C//DTD SVG 20010904//EN"
 "http://www.w3.org/TR/2001/REC-SVG-20010904/DTD/svg10.dtd">
<svg version="1.0" xmlns="http://www.w3.org/2000/svg"
 width="700.000000pt" height="700.000000pt" viewBox="0 0 700.000000 700.000000"
 preserveAspectRatio="xMidYMid meet">
<metadata>
Created by potrace 1.14, written by Peter Selinger 2001-2017
</metadata>
<g transform="translate(0.000000,700.000000) scale(0.100000,-0.100000)"
fill="#000000" stroke="none">
<path d="M0 3500 l0 -3500 3500 0 3500 0 0 3500 0 3500 -3500 0 -3500 0 0
-3500z m2390 690 l0 -120 -370 0 -370 0 0 -225 0 -225 335 0 335 0 0 -120 0
-120 -335 0 -335 0 -2 -347 -3 -348 -147 -3 -148 -3 0 816 0 815 520 0 520 0
0 -120z m876 -467 c132 -323 245 -588 250 -590 6 -2 118 261 251 584 l240 588
182 3 181 2 0 -815 0 -815 -140 0 -140 0 0 560 c0 315 -4 560 -9 560 -7 0
-139 -319 -403 -978 l-53 -132 -108 2 -109 3 -221 552 c-122 304 -225 553
-229 553 -4 0 -9 -251 -10 -557 l-3 -558 -140 0 -140 0 -3 813 -2 812 183 0
182 0 241 -587z m2364 -10 c0 -643 -3 -677 -53 -786 -156 -340 -763 -358 -932
-27 -25 48 -45 127 -45 178 l0 42 143 0 144 0 12 -52 c20 -90 69 -136 167
-158 76 -17 150 2 199 54 70 73 68 52 72 734 l4 612 145 0 144 0 0 -597z"/>
</g>
</svg>
